<svg viewBox="0 0 327 289" xmlns="http://www.w3.org/2000/svg">
<path d="M162.5,25.923L171.6,10.223C177.2,0.423 189.7,-2.877 199.5,2.723C209.3,8.323 212.6,20.823 207,30.623L119.5,182.123L182.8,182.123C203.3,182.123 214.8,206.223 205.9,222.923L20.4,222.923C9.1,222.923 0,213.823 0,202.523C0,191.223 9.1,182.123 20.4,182.123L72.4,182.123L139,66.723L118.2,30.623C112.6,20.823 115.9,8.423 125.7,2.723C135.5,-2.877 147.9,0.423 153.6,10.223L162.5,25.923ZM83.8,243.923L64.2,277.923C58.6,287.723 46.1,291.023 36.3,285.423C26.5,279.823 23.2,267.323 28.8,257.523L43.4,232.323C59.8,227.223 73.2,231.123 83.8,243.923ZM252.7,182.223L305.8,182.223C317.1,182.223 326.2,191.323 326.2,202.623C326.2,213.923 317.1,223.023 305.8,223.023L276.3,223.023L296.2,257.523C301.8,267.323 298.5,279.723 288.7,285.423C278.9,291.023 266.5,287.723 260.8,277.923C227.3,219.823 202.1,176.323 185.4,147.323C168.3,117.823 180.5,88.223 192.6,78.223C206,101.223 226,135.923 252.7,182.223Z" />
</svg>
